<svg xmlns="http://www.w3.org/2000/svg" width="10" height="16" viewBox="0 0 10 16" fill="none">
<path d="M8 5.19902H9.6C9.6 2.92942 7.396 1.89422 5.6 1.65582V-0.000976562H4V1.65582C2.204 1.89422 0 2.92942 0 5.19902C0 7.36382 2.1328 8.48942 4 8.74302V12.719C2.8416 12.5182 1.6 11.8998 1.6 10.799H0C0 12.8702 1.94 14.0942 4 14.3478V15.999H5.6V14.343C7.396 14.1046 9.6 13.0686 9.6 10.799C9.6 8.52942 7.396 7.49422 5.6 7.25582V3.27902C6.664 3.47022 8 4.03182 8 5.19902ZM1.6 5.19902C1.6 4.03182 2.936 3.47022 4 3.27902V7.11822C2.9032 6.91582 1.6 6.31662 1.6 5.19902ZM8 10.799C8 11.9662 6.664 12.5278 5.6 12.719V8.87902C6.664 9.07022 8 9.63182 8 10.799Z" fill="#007B8A"/>
</svg>