<svg xmlns="http://www.w3.org/2000/svg" width="11" height="12" viewBox="0 0 11 12" fill="none">
<g clip-path="url(#clip0_168_867)">
<path d="M5.5 0.646973C2.46236 0.646973 0 3.03238 0 5.9751C0 8.91781 2.46236 11.3032 5.5 11.3032C8.53764 11.3032 11 8.91781 11 5.9751C11 3.03238 8.53764 0.646973 5.5 0.646973ZM7.32498 8.32979C7.23849 8.41314 7.14778 8.50059 7.07415 8.57213C7.00784 8.63658 6.96105 8.71607 6.93732 8.80223C6.90383 8.92383 6.87677 9.04672 6.83153 9.16467L6.44587 10.1712C6.14071 10.2357 5.8249 10.272 5.5 10.272V9.68373C5.53748 9.4126 5.33056 8.90471 4.99812 8.58266C4.86506 8.45375 4.79032 8.27887 4.79032 8.09646V7.40875C4.79032 7.15867 4.65127 6.92879 4.42528 6.80783C4.10659 6.63703 3.65329 6.39834 3.3428 6.24687C3.08821 6.12269 2.85268 5.96457 2.64089 5.77959L2.62315 5.76412C2.47169 5.63168 2.33721 5.48208 2.22262 5.31854C2.0146 5.0227 1.67573 4.53607 1.4555 4.21982C1.90948 3.24229 2.7276 2.45725 3.74421 2.03078L4.27669 2.28881C4.51266 2.40311 4.79032 2.23703 4.79032 1.98137V1.73859C4.96752 1.71088 5.14782 1.69326 5.33123 1.6866L5.95885 2.29461C6.09746 2.42889 6.09746 2.64652 5.95885 2.7808L5.85484 2.88135L5.62552 3.1035C5.55633 3.17053 5.55633 3.27945 5.62552 3.34648L5.72954 3.44725C5.79873 3.51428 5.79873 3.6232 5.72954 3.69023L5.55212 3.86211C5.5188 3.89432 5.47366 3.9124 5.42659 3.91238H5.22722C5.18109 3.91238 5.13673 3.92979 5.10347 3.96115L4.88347 4.16848C4.8565 4.19392 4.83857 4.227 4.83228 4.26295C4.82598 4.2989 4.83163 4.33586 4.84843 4.3685L5.19417 5.03859C5.25317 5.15289 5.16734 5.28738 5.0356 5.28738H4.91052C4.86772 5.28738 4.82647 5.27234 4.79431 5.24527L4.58851 5.07211C4.54193 5.03297 4.48565 5.00625 4.42518 4.99457C4.36472 4.98289 4.30216 4.98666 4.24365 5.00551L3.55238 5.22873C3.4996 5.24578 3.4537 5.27848 3.42118 5.32221C3.38866 5.36594 3.37117 5.41847 3.37119 5.47236C3.37119 5.56969 3.42796 5.65842 3.51778 5.70203L3.76351 5.82105C3.9722 5.92225 4.2024 5.97488 4.43571 5.97488C4.66901 5.97488 4.93669 6.56119 5.14538 6.66238H6.62573C6.81401 6.66238 6.99431 6.73479 7.1276 6.86369L7.43121 7.15781C7.55805 7.28073 7.62928 7.44743 7.62925 7.62123C7.62921 7.75293 7.6023 7.88332 7.55009 8.00492C7.49787 8.12651 7.42137 8.23692 7.32498 8.32979ZM9.24798 6.36719C9.11958 6.33604 9.00758 6.25977 8.93417 6.15299L8.53542 5.57355C8.47708 5.4889 8.44594 5.38939 8.44594 5.2876C8.44594 5.18581 8.47708 5.0863 8.53542 5.00164L8.96988 4.37043C9.02133 4.29588 9.09186 4.23529 9.1748 4.19533L9.46266 4.0559C9.7625 4.63426 9.93548 5.2848 9.93548 5.9751C9.93548 6.16137 9.91907 6.34377 9.89512 6.52381L9.24798 6.36719Z" fill="#444A58"/>
</g>
<defs>
<clipPath id="clip0_168_867">
<rect width="11" height="11" fill="white" transform="translate(0 0.475098)"/>
</clipPath>
</defs>
</svg>